{"scene":0,"asset":{"generator":"ImageToStl.com","version":"2.0"},"scenes":[{"name":"Scene","nodes":[0]}],"nodes":[{"name":"Node0","children":[1]},{"name":"Node1","mesh":0}],"materials":[{"name":"x1","pbrMetallicRoughness":{"baseColorFactor":[0.85,0.85,0.85,1.0],"metallicFactor":0.05,"roughnessFactor":0.5},"doubleSided":true}],"meshes":[{"name":"Mesh0","primitives":[{"indices":3,"material":0,"attributes":{"POSITION":0,"NORMAL":1,"TEXCOORD_0":2}}]}],"accessors":[{"bufferView":0,"componentType":5126,"count":5402,"type":"VEC3","min":[8.80125,65.6,2.5],"max":[49.72193,155.6,101.62601]},{"bufferView":1,"componentType":5126,"count":5402,"type":"VEC3"},{"bufferView":2,"componentType":5126,"count":5402,"type":"VEC2"},{"bufferView":3,"componentType":5123,"count":36648,"type":"SCALAR"}],"bufferViews":[{"target":34962,"buffer":0,"byteLength":64824,"byteOffset":0},{"target":34962,"buffer":0,"byteLength":64824,"byteOffset":64824},{"target":34962,"buffer":0,"byteLength":43216,"byteOffset":129648},{"target":34963,"buffer":0,"byteLength":73296,"byteOffset":172864}],"buffers":[{"byteLength":246160,"uri":"data:application/octet-stream;base64,"}]}